<?xml version="1.0" encoding="utf-8"?>
<!-- Generator: Adobe Illustrator 22.1.0, SVG Export Plug-In . SVG Version: 6.00 Build 0)  -->
<svg version="1.1" xmlns="http://www.w3.org/2000/svg" xmlns:xlink="http://www.w3.org/1999/xlink" x="0px" y="0px"
	 viewBox="0 0 304 333" style="enable-background:new 0 0 304 333;" xml:space="preserve">
<style type="text/css">
	.st0{fill:none;stroke:#FFFFFF;stroke-width:10;stroke-linecap:round;stroke-linejoin:round;stroke-miterlimit:10;}
	.st1{fill:none;stroke:#FFFFFF;stroke-width:7;stroke-linecap:round;stroke-linejoin:round;stroke-miterlimit:10;}
</style>
<g id="Layer_1">
</g>
<g id="Layer_2">
	<path class="st0" d="M119.7,201.8V92.6c0-3.9,1.3-7.8,3.8-10.9c2-2.4,5-4.6,9.4-5.3c1.8-0.3,3.6-0.2,5.4,0.2
		c4.5,1,13.2,4.2,13.4,12.9v76c0,0,0.9-9.6,9.4-13.3c4.8-2,10.3-1.5,14.6,1.4c4.5,3,9.4,9,7.9,20.9c0,0,3.9-12.3,14.2-13.7
		c3.1-0.5,6.3,0.3,9.1,1.9c4.8,2.8,11.8,9.4,9.1,24.2c0,0,2.3-15.6,15.5-15.3c2,0,4.1,0.5,5.9,1.3c4,1.7,10.3,5.7,10.5,14.3v58.7
		c0,0,0.9,35.8-36.7,55.9c-3.5,1.9-7.4,2.8-11.3,2.8h-59.3c0,0-11.3,0-24.3-21L85,221.8c0,0-3.3-10-13-22c0,0-8.3-14,3.3-23.3
		c0,0,11.3-7.7,21,1.3L119.7,201.8z"/>
</g>
<g id="Layer_3">
	<line class="st1" x1="157.7" y1="67.4" x2="207.4" y2="44"/>
</g>
<g id="Layer_4">
	<line class="st1" x1="168.4" y1="86.6" x2="204.8" y2="84.7"/>
</g>
<g id="Layer_5">
	<line class="st1" x1="133.7" y1="60.3" x2="133.7" y2="13.7"/>
</g>
<g id="Layer_6">
	<g id="Layer_4_copy">
		<line class="st1" x1="67.7" y1="84.8" x2="104" y2="86.5"/>
	</g>
</g>
<g id="Layer_8">
	<g id="Layer_3_copy">
		<line class="st1" x1="112.2" y1="66.4" x2="62.6" y2="43"/>
	</g>
</g>
</svg>
